<svg width="24" height="24" viewBox="0 0 24 24" fill="none" xmlns="http://www.w3.org/2000/svg">
<path fill-rule="evenodd" clip-rule="evenodd" d="M3.60002 3.6001C3.28176 3.6001 2.97654 3.72653 2.7515 3.95157C2.52645 4.17661 2.40002 4.48184 2.40002 4.8001C2.40002 5.11836 2.52645 5.42358 2.7515 5.64863C2.97654 5.87367 3.28176 6.0001 3.60002 6.0001V15.6001C3.60002 16.2366 3.85288 16.8471 4.30297 17.2972C4.75306 17.7472 5.3635 18.0001 6.00002 18.0001H9.10322L7.55162 19.5517C7.43701 19.6624 7.34559 19.7948 7.2827 19.9412C7.21981 20.0876 7.18671 20.2451 7.18532 20.4044C7.18394 20.5638 7.2143 20.7218 7.27464 20.8692C7.33497 21.0167 7.42408 21.1507 7.53675 21.2634C7.64942 21.376 7.7834 21.4651 7.93088 21.5255C8.07835 21.5858 8.23637 21.6162 8.39571 21.6148C8.55504 21.6134 8.7125 21.5803 8.85891 21.5174C9.00531 21.4545 9.13773 21.3631 9.24842 21.2485L12 18.4969L14.7516 21.2485C14.9779 21.4671 15.2811 21.588 15.5957 21.5853C15.9103 21.5826 16.2113 21.4564 16.4338 21.2339C16.6563 21.0114 16.7825 20.7104 16.7852 20.3958C16.788 20.0811 16.667 19.778 16.4484 19.5517L14.8968 18.0001H18C18.6365 18.0001 19.247 17.7472 19.6971 17.2972C20.1472 16.8471 20.4 16.2366 20.4 15.6001V6.0001C20.7183 6.0001 21.0235 5.87367 21.2486 5.64863C21.4736 5.42358 21.6 5.11836 21.6 4.8001C21.6 4.48184 21.4736 4.17661 21.2486 3.95157C21.0235 3.72653 20.7183 3.6001 20.4 3.6001H3.60002ZM17.6484 9.2485C17.867 9.02217 17.988 8.71905 17.9852 8.40442C17.9825 8.08978 17.8563 7.78881 17.6338 7.56632C17.4113 7.34383 17.1103 7.21762 16.7957 7.21489C16.4811 7.21215 16.1779 7.33311 15.9516 7.5517L12 11.5033L10.4484 9.9517C10.2234 9.72673 9.91822 9.60035 9.60002 9.60035C9.28183 9.60035 8.97666 9.72673 8.75162 9.9517L6.35162 12.3517C6.23701 12.4624 6.14559 12.5948 6.0827 12.7412C6.01981 12.8876 5.98671 13.0451 5.98532 13.2044C5.98394 13.3638 6.0143 13.5218 6.07464 13.6692C6.13497 13.8167 6.22408 13.9507 6.33675 14.0634C6.44942 14.176 6.5834 14.2651 6.73088 14.3255C6.87836 14.3858 7.03637 14.4162 7.19571 14.4148C7.35504 14.4134 7.5125 14.3803 7.65891 14.3174C7.80531 14.2545 7.93773 14.1631 8.04842 14.0485L9.60002 12.4969L11.1516 14.0485C11.3767 14.2735 11.6818 14.3998 12 14.3998C12.3182 14.3998 12.6234 14.2735 12.8484 14.0485L17.6484 9.2485Z" fill="#FAFAFA"/>
</svg>
