<svg width="25" height="25" viewBox="0 0 25 25" fill="none" xmlns="http://www.w3.org/2000/svg">
<path fill-rule="evenodd" clip-rule="evenodd" d="M0.800049 2.4C0.800049 1.86957 0.98066 1.36086 1.30215 0.985786C1.62364 0.610714 2.05968 0.4 2.51433 0.4H23.0858C23.5404 0.4 23.9765 0.610714 24.2979 0.985786C24.6194 1.36086 24.8 1.86957 24.8 2.4C24.8 2.93043 24.6194 3.43914 24.2979 3.81421C23.9765 4.18929 23.5404 4.4 23.0858 4.4H2.51433C2.05968 4.4 1.62364 4.18929 1.30215 3.81421C0.98066 3.43914 0.800049 2.93043 0.800049 2.4ZM0.800049 12.4C0.800049 11.8696 0.98066 11.3609 1.30215 10.9858C1.62364 10.6107 2.05968 10.4 2.51433 10.4H23.0858C23.5404 10.4 23.9765 10.6107 24.2979 10.9858C24.6194 11.3609 24.8 11.8696 24.8 12.4C24.8 12.9304 24.6194 13.4391 24.2979 13.8142C23.9765 14.1893 23.5404 14.4 23.0858 14.4H2.51433C2.05968 14.4 1.62364 14.1893 1.30215 13.8142C0.98066 13.4391 0.800049 12.9304 0.800049 12.4ZM11.0858 22.4C11.0858 21.8696 11.2664 21.3609 11.5879 20.9858C11.9094 20.6107 12.3454 20.4 12.8 20.4H23.0858C23.5404 20.4 23.9765 20.6107 24.2979 20.9858C24.6194 21.3609 24.8 21.8696 24.8 22.4C24.8 22.9304 24.6194 23.4391 24.2979 23.8142C23.9765 24.1893 23.5404 24.4 23.0858 24.4H12.8C12.3454 24.4 11.9094 24.1893 11.5879 23.8142C11.2664 23.4391 11.0858 22.9304 11.0858 22.4Z" fill="#FAFAFA"/>
</svg>
