<svg width="24" height="24" viewBox="0 0 24 24" fill="none" xmlns="http://www.w3.org/2000/svg">
<path d="M10.1196 8.90145C10.3056 8.77785 10.5348 8.66625 10.8 8.58105V10.6187C10.5596 10.5433 10.3307 10.4355 10.1196 10.2983C9.68398 10.0079 9.59998 9.73665 9.59998 9.59985C9.59998 9.46305 9.68398 9.19185 10.1196 8.90145ZM13.2 15.4187V13.3811C13.464 13.4663 13.6944 13.5779 13.8804 13.7015C14.3172 13.9931 14.4 14.2631 14.4 14.3999C14.4 14.5367 14.316 14.8079 13.8804 15.0983C13.6692 15.2355 13.4403 15.3433 13.2 15.4187Z" fill="#FAFAFA"/>
<path fill-rule="evenodd" clip-rule="evenodd" d="M12 21.5999C14.5461 21.5999 16.9879 20.5885 18.7882 18.7881C20.5886 16.9878 21.6 14.546 21.6 11.9999C21.6 9.45382 20.5886 7.01203 18.7882 5.21168C16.9879 3.41133 14.5461 2.3999 12 2.3999C9.45395 2.3999 7.01215 3.41133 5.2118 5.21168C3.41145 7.01203 2.40002 9.45382 2.40002 11.9999C2.40002 14.546 3.41145 16.9878 5.2118 18.7881C7.01215 20.5885 9.45395 21.5999 12 21.5999ZM13.2 5.9999C13.2 5.68164 13.0736 5.37642 12.8486 5.15137C12.6235 4.92633 12.3183 4.7999 12 4.7999C11.6818 4.7999 11.3765 4.92633 11.1515 5.15137C10.9265 5.37642 10.8 5.68164 10.8 5.9999V6.1103C10.0832 6.2379 9.39933 6.50803 8.78882 6.9047C7.92242 7.4807 7.20002 8.4107 7.20002 9.5999C7.20002 10.7879 7.92242 11.7179 8.78882 12.2951C9.36482 12.6791 10.0536 12.9491 10.8 13.0895V15.4187C10.3308 15.2663 9.98402 15.0383 9.78842 14.8139C9.68691 14.6893 9.5614 14.5864 9.41936 14.5113C9.27731 14.4361 9.12162 14.3903 8.96152 14.3764C8.80142 14.3626 8.64016 14.381 8.48733 14.4307C8.3345 14.4804 8.1932 14.5602 8.07181 14.6655C7.95043 14.7708 7.85143 14.8995 7.78069 15.0438C7.70996 15.188 7.66892 15.3451 7.66003 15.5055C7.65113 15.666 7.67455 15.8266 7.7289 15.9778C7.78325 16.129 7.86742 16.2678 7.97642 16.3859C8.65082 17.1647 9.67202 17.6771 10.8 17.8895V17.9999C10.8 18.3182 10.9265 18.6234 11.1515 18.8484C11.3765 19.0735 11.6818 19.1999 12 19.1999C12.3183 19.1999 12.6235 19.0735 12.8486 18.8484C13.0736 18.6234 13.2 18.3182 13.2 17.9999V17.8895C13.9168 17.7619 14.6007 17.4918 15.2112 17.0951C16.0776 16.5191 16.8 15.5891 16.8 14.3999C16.8 13.2119 16.0776 12.2819 15.2112 11.7047C14.6007 11.308 13.9168 11.0379 13.2 10.9103V8.5811C13.6692 8.7335 14.016 8.9615 14.2116 9.1859C14.3141 9.30748 14.4397 9.40748 14.5811 9.48009C14.7226 9.55271 14.877 9.59649 15.0356 9.6089C15.1941 9.6213 15.3535 9.60209 15.5045 9.55236C15.6555 9.50264 15.7951 9.4234 15.9153 9.31924C16.0354 9.21509 16.1336 9.0881 16.2043 8.94566C16.2749 8.80322 16.3165 8.64815 16.3267 8.48949C16.3369 8.33082 16.3155 8.17171 16.2637 8.02139C16.2118 7.87108 16.1306 7.73257 16.0248 7.6139C15.3492 6.8351 14.3292 6.3227 13.2 6.1103V5.9999Z" fill="#FAFAFA"/>
</svg>
