<svg xmlns="http://www.w3.org/2000/svg" width="24" height="24" fill="none" viewBox="0 0 24 24"><path fill="#FAFAFA" d="M17.2969 8.3998L21.2485 4.4482C21.4671 4.22188 21.588 3.91876 21.5853 3.60412C21.5825 3.28949 21.4563 2.98851 21.2339 2.76602C21.0114 2.54353 20.7104 2.41733 20.3958 2.4146C20.0811 2.41186 19.778 2.53282 19.5517 2.7514L15.6001 6.703V4.7998C15.6001 4.48154 15.4736 4.17632 15.2486 3.95128C15.0236 3.72623 14.7183 3.5998 14.4001 3.5998C14.0818 3.5998 13.7766 3.72623 13.5515 3.95128C13.3265 4.17632 13.2001 4.48154 13.2001 4.7998V9.6034C13.2001 9.84025 13.2705 10.0718 13.4023 10.2685C13.5341 10.4653 13.7214 10.6185 13.9405 10.7086C14.0862 10.769 14.2424 10.8 14.4001 10.7998H19.2001C19.5183 10.7998 19.8236 10.6734 20.0486 10.4483C20.2736 10.2233 20.4001 9.91806 20.4001 9.5998C20.4001 9.28154 20.2736 8.97632 20.0486 8.75128C19.8236 8.52623 19.5183 8.3998 19.2001 8.3998H17.2969Z"/><path fill="#FAFAFA" d="M2.40002 3.5999C2.40002 3.28164 2.52645 2.97642 2.7515 2.75137C2.97654 2.52633 3.28176 2.3999 3.60002 2.3999H6.18363C6.46767 2.40003 6.74246 2.50092 6.95912 2.68461C7.17577 2.86831 7.32024 3.1229 7.36683 3.4031L8.25483 8.7251C8.29726 8.97856 8.2572 9.23895 8.14054 9.46794C8.02389 9.69693 7.8368 9.88241 7.60683 9.9971L5.74923 10.9247C6.41535 12.5755 7.40743 14.075 8.66616 15.3338C9.92489 16.5925 11.4244 17.5846 13.0752 18.2507L14.004 16.3931C14.1187 16.1633 14.304 15.9764 14.5327 15.8598C14.7614 15.7431 15.0216 15.7029 15.2748 15.7451L20.5968 16.6331C20.877 16.6797 21.1316 16.8242 21.3153 17.0408C21.499 17.2575 21.5999 17.5323 21.6 17.8163V20.3999C21.6 20.7182 21.4736 21.0234 21.2486 21.2484C21.0235 21.4735 20.7183 21.5999 20.4 21.5999H18C9.38403 21.5999 2.40002 14.6159 2.40002 5.9999V3.5999Z"/></svg>